<svg width="163" height="48" viewBox="0 0 163 48" fill="none" xmlns="http://www.w3.org/2000/svg">
<path d="M57.8289 13.6297C57.7708 13.5326 57.635 13.4167 57.5573 13.3587V25.9383H54.6475V13.1456C54.6475 12.2549 55.3651 11.5585 56.2382 11.5585H57.383C58.256 11.5585 59.7494 11.6361 60.6421 13.4942L63.9006 20.3645C64.948 18.1389 66.0928 15.7002 67.1402 13.4942C68.0321 11.6361 69.5263 11.5585 70.4182 11.5585H71.5434C72.4353 11.5585 73.1341 12.2549 73.1341 13.1456V25.9383H70.2243V13.3775C70.0688 13.4355 70.0107 13.513 69.933 13.629C68.6336 16.3967 67.2368 19.2999 65.9373 22.0668C65.5298 22.7828 64.8899 23.2474 63.9006 23.2474C62.8728 23.2474 62.2321 22.7828 61.8443 22.0668L57.8289 13.6297Z" fill="black"/>
<path d="M75.8496 15.5067C75.8496 11.8296 78.6236 11.5585 81.7077 11.5585H89.0207V13.3391H81.8435C79.923 13.3391 78.779 13.4942 78.779 15.5067V17.8483H89.0207V19.6289H78.779V21.99C78.779 24.0025 79.9238 24.1576 81.8435 24.1576H89.0207V25.9383H81.7077C78.6236 25.9383 75.8496 25.6672 75.8496 21.99V15.5067Z" fill="black"/>
<path d="M91.7373 11.5585H94.6471V25.9383H91.7373V11.5585Z" fill="black"/>
<path d="M101.708 13.6297C101.65 13.5326 101.514 13.4167 101.436 13.3587V25.9383H98.5264V13.1456C98.5264 12.2549 99.244 11.5585 100.117 11.5585H101.262C102.135 11.5585 103.628 11.6361 104.521 13.4942L107.78 20.3645C108.828 18.1389 109.972 15.7002 111.02 13.4942C111.913 11.6361 113.406 11.5585 114.298 11.5585H115.423C116.316 11.5585 117.014 12.2549 117.014 13.1456V25.9383H114.104V13.3775C113.949 13.4355 113.89 13.513 113.813 13.629C112.514 16.3967 111.117 19.2999 109.818 22.0668C109.41 22.7828 108.77 23.2474 107.781 23.2474C106.752 23.2474 106.113 22.7828 105.725 22.0668L101.708 13.6297Z" fill="black"/>
<path d="M122.523 24.1576C122.329 24.6606 122.232 25.3578 122.232 25.9383H119.342C119.342 24.7193 119.555 24.0613 120.021 22.8807L123.668 13.4363C124.347 11.7136 125.453 11.5592 126.364 11.5592H127.586C128.498 11.5592 129.623 11.7144 130.302 13.4363L133.949 22.8807C134.415 24.0417 134.647 24.6997 134.647 25.9383H131.737C131.737 25.3578 131.64 24.6606 131.446 24.1576L130.632 22.0676H123.299L122.523 24.1576ZM124.017 20.3065H129.972L127.392 13.6493V13.6689C127.256 13.4362 127.101 13.3399 126.965 13.3399C126.829 13.3399 126.674 13.4558 126.577 13.6493L124.017 20.3065Z" fill="black"/>
<path d="M138.546 11.5585H139.729C140.602 11.5585 141.921 11.6361 143.027 13.3587L149.816 24.0033C149.855 24.0808 149.894 24.1193 150.01 24.1388V11.5593H152.9V24.3715C152.9 25.223 152.202 25.939 151.329 25.939H150.146C149.273 25.939 147.935 25.9195 146.829 24.1388L140.137 13.6297C140.06 13.4942 139.983 13.3971 139.885 13.3587V25.9383H136.976V13.1456C136.975 12.2557 137.673 11.5585 138.546 11.5585Z" fill="black"/>
<path d="M57.149 30.5446H57.7497V32.5473L59.4966 30.5446H60.2475L58.3549 32.6934L60.2475 34.9604H59.4966L57.7497 32.8432V34.9604H57.149V32.8432L55.4021 34.9604H54.6475L56.54 32.6934L54.6475 30.5446H55.4021L57.149 32.5473V30.5446Z" fill="#E95853"/>
<path d="M64.0923 30.5446H64.6892V34.9604H64.0923V31.3924L61.3976 34.9604H60.7969V30.5446H61.3976V34.1134L64.0923 30.5446Z" fill="#E95853"/>
<path d="M69.0129 31.7079C69.0129 31.9209 68.9488 32.1047 68.8212 32.2597C68.6937 32.4148 68.5571 32.524 68.4122 32.5873C68.9631 32.7868 69.2386 33.1391 69.2386 33.6436C69.2386 34.0223 69.0861 34.3363 68.782 34.5862C68.4779 34.8362 68.0847 34.9612 67.6025 34.9612H65.71V30.5454H67.4841C67.958 30.5454 68.3315 30.647 68.6047 30.8511C68.8771 31.0543 69.0129 31.3404 69.0129 31.7079ZM68.4364 31.7079C68.4364 31.2923 68.0862 31.0852 67.3852 31.0852H66.3106V32.3704H67.3852C67.7089 32.3704 67.9655 32.3155 68.1542 32.2048C68.3421 32.0949 68.4364 31.9292 68.4364 31.7079ZM66.3099 32.911V34.4213H67.4478C67.6795 34.4213 67.881 34.3965 68.0523 34.3468C68.2236 34.2971 68.3624 34.2128 68.4688 34.0946C68.5752 33.9764 68.6288 33.8265 68.6288 33.6451C68.6288 33.1565 68.2349 32.9118 67.4471 32.9118H66.3099V32.911Z" fill="#E95853"/>
<path d="M73.3323 30.5446H73.9292V34.9604H73.3323V31.3924L70.6368 34.9604H70.0361V30.5446H70.6368V34.1134L73.3323 30.5446Z" fill="#E95853"/>
<path d="M77.4499 31.0852H76.2999V34.9612H75.6992V31.0852H74.5371V30.5454H77.4499V31.0852Z" fill="#E95853"/>
<path d="M82.311 32.9502H78.3077C78.3311 33.3868 78.5107 33.7565 78.845 34.0599C79.1793 34.3634 79.5747 34.5155 80.0305 34.5155C80.3678 34.5155 80.6787 34.4228 80.9632 34.2376C81.2477 34.0524 81.4522 33.8085 81.576 33.5066H82.2C82.037 33.9719 81.7578 34.3483 81.3624 34.6359C80.967 34.9235 80.5285 35.0673 80.0463 35.0673C79.7249 35.0673 79.4193 35.0071 79.1295 34.8859C78.8397 34.7647 78.5907 34.6005 78.3824 34.3935C78.1741 34.1857 78.0096 33.9372 77.8889 33.6481C77.7674 33.359 77.707 33.0541 77.707 32.7333C77.707 32.3124 77.8081 31.9262 78.0111 31.5739C78.2141 31.2215 78.4903 30.9444 78.8412 30.7419C79.1914 30.5394 79.5777 30.4385 79.9988 30.4385C80.4357 30.4385 80.8387 30.5461 81.2062 30.7615C81.5737 30.9768 81.8537 31.2704 82.0461 31.6409C82.1434 31.8276 82.2121 32.0188 82.2513 32.2146C82.2906 32.4103 82.311 32.6558 82.311 32.9502ZM78.3235 32.4103H81.7141C81.6137 31.9714 81.4107 31.6243 81.1036 31.3691C80.7964 31.1138 80.4282 30.9866 79.9988 30.9866C79.58 30.9866 79.2163 31.1176 78.9084 31.3788C78.5997 31.6401 78.405 31.9842 78.3235 32.4103Z" fill="#E95853"/>
<path d="M88.6819 31.7079C88.6819 31.9209 88.6177 32.1047 88.4902 32.2597C88.3627 32.4148 88.2261 32.524 88.0812 32.5873C88.6321 32.7868 88.9075 33.1391 88.9075 33.6436C88.9075 34.0223 88.7551 34.3363 88.451 34.5862C88.1469 34.8362 87.7537 34.9612 87.2715 34.9612H85.3789V30.5454H87.153C87.6269 30.5454 88.0005 30.647 88.2736 30.8511C88.5453 31.0543 88.6819 31.3404 88.6819 31.7079ZM88.1046 31.7079C88.1046 31.2923 87.7544 31.0852 87.0534 31.0852H85.9788V32.3704H87.0534C87.3771 32.3704 87.6337 32.3155 87.8224 32.2048C88.0103 32.0949 88.1046 31.9292 88.1046 31.7079ZM85.9781 32.911V34.4213H87.116C87.3477 34.4213 87.5492 34.3965 87.7205 34.3468C87.8918 34.2971 88.0306 34.2128 88.137 34.0946C88.2434 33.9764 88.297 33.8265 88.297 33.6451C88.297 33.1565 87.9031 32.9118 87.1153 32.9118H85.9781V32.911Z" fill="#E95853"/>
<path d="M91.9451 30.5446H92.5458V32.512L94.5689 30.5446H95.3431L93.1344 32.6814L95.3431 34.9604H94.5606L92.545 32.8786V34.9604H91.9443V30.5446H91.9451Z" fill="#E95853"/>
<path d="M97.9248 30.4385C98.3541 30.4385 98.742 30.5386 99.0884 30.7404C99.4348 30.9414 99.7064 31.2192 99.9026 31.5746C100.099 31.9292 100.197 32.326 100.197 32.7657C100.197 33.4283 99.9834 33.9779 99.557 34.4138C99.1306 34.8497 98.5919 35.0681 97.9406 35.0681C97.4954 35.0681 97.0924 34.9679 96.731 34.7684C96.3703 34.5689 96.0873 34.2926 95.8835 33.9402C95.679 33.5879 95.5771 33.1941 95.5771 32.7574C95.5771 32.0873 95.7983 31.5332 96.2412 31.0957C96.6834 30.6576 97.2449 30.4385 97.9248 30.4385ZM97.8772 30.9866C97.392 30.9866 96.989 31.1552 96.6683 31.4933C96.3469 31.8313 96.1861 32.2552 96.1861 32.7649C96.1861 33.2694 96.3506 33.6873 96.6804 34.0185C97.0094 34.3498 97.4245 34.5155 97.9255 34.5155C98.413 34.5155 98.813 34.3521 99.1246 34.0246C99.437 33.697 99.5932 33.2799 99.5932 32.7725C99.5932 32.2522 99.4325 31.8246 99.111 31.4888C98.7888 31.1545 98.3775 30.9866 97.8772 30.9866Z" fill="#E95853"/>
<path d="M101.047 34.9612V30.5454H101.98L103.525 34.1292L105.071 30.5454H105.999V34.9612H105.403V31.1997L103.782 34.9612H103.265L101.648 31.1997V34.9612H101.047Z" fill="#E95853"/>
<path d="M109.381 28.9951H109.982V30.446C110.862 30.4851 111.507 30.6997 111.917 31.089C112.326 31.4782 112.531 32.0339 112.531 32.7567C112.531 33.4772 112.326 34.0306 111.918 34.4183C111.51 34.8061 110.864 35.0199 109.982 35.0591V36.5099H109.381V35.0591C108.498 35.0199 107.853 34.8061 107.445 34.4183C107.037 34.0306 106.832 33.4764 106.832 32.7567C106.832 32.0339 107.037 31.4782 107.446 31.089C107.856 30.6997 108.5 30.4859 109.381 30.446V28.9951ZM109.381 30.9941C108.699 31.0287 108.205 31.1906 107.899 31.4812C107.593 31.7719 107.44 32.1973 107.44 32.7567C107.44 33.3138 107.593 33.7362 107.897 34.0246C108.201 34.3122 108.696 34.4733 109.38 34.5072V30.9941H109.381ZM109.982 34.5079C110.667 34.474 111.161 34.3129 111.465 34.0253C111.769 33.7377 111.922 33.3146 111.922 32.7574C111.922 32.1973 111.769 31.7726 111.463 31.482C111.158 31.1914 110.663 31.0295 109.981 30.9949V34.5079H109.982Z" fill="#E95853"/>
<path d="M115.539 30.4385C115.968 30.4385 116.356 30.5386 116.703 30.7404C117.049 30.9414 117.321 31.2192 117.517 31.5746C117.713 31.9292 117.811 32.326 117.811 32.7657C117.811 33.4283 117.598 33.9779 117.171 34.4138C116.745 34.8497 116.206 35.0681 115.555 35.0681C115.11 35.0681 114.707 34.9679 114.345 34.7684C113.985 34.5689 113.702 34.2926 113.498 33.9402C113.293 33.5879 113.191 33.1941 113.191 32.7574C113.191 32.0873 113.413 31.5332 113.855 31.0957C114.298 30.6576 114.859 30.4385 115.539 30.4385ZM115.491 30.9866C115.006 30.9866 114.603 31.1552 114.283 31.4933C113.961 31.8313 113.8 32.2552 113.8 32.7649C113.8 33.2694 113.965 33.6873 114.295 34.0185C114.624 34.3498 115.039 34.5155 115.54 34.5155C116.027 34.5155 116.427 34.3521 116.739 34.0246C117.051 33.697 117.207 33.2799 117.207 32.7725C117.207 32.2522 117.047 31.8246 116.725 31.4888C116.403 31.1545 115.992 30.9866 115.491 30.9866Z" fill="#E95853"/>
<path d="M118.66 30.5446H119.261V31.3013C119.445 31.0197 119.686 30.8059 119.982 30.6583C120.279 30.5107 120.618 30.4377 120.999 30.4377C121.434 30.4377 121.83 30.5386 122.185 30.7411C122.54 30.9437 122.82 31.2215 123.025 31.5753C123.229 31.9292 123.331 32.3222 123.331 32.7559C123.331 33.1843 123.229 33.5758 123.023 33.9289C122.817 34.2828 122.534 34.5606 122.175 34.7632C121.816 34.9657 121.418 35.0666 120.984 35.0666C120.618 35.0666 120.288 34.992 119.994 34.8437C119.7 34.6954 119.456 34.4801 119.261 34.1992V36.5099H118.66V30.5446ZM120.952 30.9866C120.464 30.9866 120.053 31.1575 119.719 31.4993C119.385 31.8411 119.217 32.2605 119.217 32.7574C119.217 33.2543 119.385 33.6714 119.723 34.0095C120.06 34.3475 120.477 34.5162 120.975 34.5162C121.473 34.5162 121.888 34.3498 122.222 34.0178C122.555 33.685 122.722 33.2709 122.722 32.774C122.722 32.2537 122.555 31.8261 122.222 31.4903C121.889 31.1545 121.466 30.9866 120.952 30.9866Z" fill="#E95853"/>
<path d="M126.501 31.0852H125.351V34.9612H124.75V31.0852H123.588V30.5454H126.501V31.0852Z" fill="#E95853"/>
<path d="M131.361 32.9502H127.358C127.381 33.3868 127.561 33.7565 127.895 34.0599C128.229 34.3634 128.625 34.5155 129.08 34.5155C129.418 34.5155 129.729 34.4228 130.013 34.2376C130.298 34.0524 130.502 33.8085 130.626 33.5066H131.25C131.087 33.9719 130.808 34.3483 130.412 34.6359C130.017 34.9235 129.578 35.0673 129.096 35.0673C128.775 35.0673 128.469 35.0071 128.179 34.8859C127.89 34.7647 127.64 34.6005 127.432 34.3935C127.224 34.1857 127.059 33.9372 126.939 33.6481C126.817 33.359 126.757 33.0541 126.757 32.7333C126.757 32.3124 126.858 31.9262 127.061 31.5739C127.264 31.2215 127.54 30.9444 127.891 30.7419C128.241 30.5394 128.628 30.4385 129.049 30.4385C129.486 30.4385 129.888 30.5461 130.256 30.7615C130.623 30.9768 130.903 31.2704 131.096 31.6409C131.193 31.8276 131.262 32.0188 131.301 32.2146C131.341 32.4103 131.361 32.6558 131.361 32.9502ZM127.373 32.4103H130.764C130.663 31.9714 130.461 31.6243 130.153 31.3691C129.846 31.1138 129.478 30.9866 129.049 30.9866C128.63 30.9866 128.266 31.1176 127.958 31.3788C127.65 31.6401 127.455 31.9842 127.373 32.4103Z" fill="#E95853"/>
<path d="M27.0544 22.8383C26.3201 21.3332 25.1988 20.2144 23.6903 19.4818C23.2647 19.2748 23.2647 18.677 23.6903 18.4707C25.1988 17.7381 26.3201 16.6193 27.0544 15.1142C27.2619 14.6896 27.8611 14.6896 28.0678 15.1142C28.8021 16.6193 29.9234 17.7381 31.4319 18.4707C31.8575 18.6777 31.8575 19.2755 31.4319 19.4818C29.9234 20.2144 28.8021 21.3332 28.0678 22.8383C27.8611 23.2637 27.2619 23.2637 27.0544 22.8383Z" fill="#E95853"/>
<path d="M44.4918 19.658L32.0406 9.58337C30.7781 8.56167 29.1874 8 27.562 8C25.9365 8 24.3458 8.56167 23.0841 9.58337L10.6321 19.658C8.95987 21.0117 8 23.0197 8 25.1685V36.1421V36.9794V37.1029C8 38.1923 8.74405 39.147 9.8058 39.4C10.6298 39.5965 11.8176 39.7403 13.6189 39.8992C14.9674 40.0181 16.3265 40.0362 17.6757 39.93C18.5126 39.863 19.3495 39.7546 20.1758 39.61C20.7832 39.5039 21.3869 39.3706 21.9793 39.2012C22.0102 39.1922 22.0419 39.1831 22.0729 39.1749C22.8418 38.9497 23.5934 38.6538 24.3163 38.3098C24.8604 38.0515 25.3819 37.7436 25.861 37.3777C26.4421 36.935 26.9983 36.4862 27.4646 35.9208C27.4963 35.8824 27.5288 35.8425 27.5597 35.8033C27.5982 35.85 27.6374 35.8967 27.6759 35.9434C27.8525 36.1549 28.0427 36.356 28.2426 36.5465C28.5694 36.8544 28.9263 37.1254 29.284 37.3957C29.5134 37.5689 29.7519 37.7293 29.9986 37.8768C30.6785 38.2857 31.4188 38.6034 32.1613 38.8797C32.4851 39.0002 32.8133 39.1063 33.1446 39.2005C34.2275 39.5084 35.3436 39.6883 36.4619 39.8284C37.8044 39.997 39.1619 40.0354 40.512 39.9669C42.2272 39.8803 44.0647 39.6206 45.3777 39.2599C46.4078 38.9768 47.1224 38.0447 47.1224 36.9786V36.1293V25.1678C47.1239 23.0197 46.1648 21.011 44.4918 19.658ZM42.5381 35.7777C40.9451 35.978 39.334 36.0465 37.7312 35.9404C37.335 35.914 36.9396 35.8771 36.5457 35.8289C35.3496 35.6528 34.1581 35.3802 33.0322 34.9375C33.0292 34.9367 33.0261 34.936 33.0239 34.9345C32.4745 34.686 31.9478 34.3909 31.4588 34.04C31.1253 33.7637 30.8159 33.461 30.5382 33.1305C30.3382 32.8512 30.1631 32.5576 30.016 32.2489C29.853 31.8046 29.742 31.3424 29.6658 30.8756C29.6251 30.4803 29.613 30.0828 29.6439 29.686C29.6854 29.4669 29.7428 29.2523 29.8175 29.0422C29.9133 28.8495 30.0228 28.6628 30.1443 28.4843C30.2869 28.3202 30.4401 28.1658 30.6046 28.0228C30.7676 27.9114 30.9381 27.8112 31.1147 27.7231C31.295 27.6614 31.4792 27.611 31.6663 27.5741C31.8799 27.5583 32.0934 27.5583 32.307 27.5741C32.5122 27.6147 32.7145 27.6697 32.913 27.739C32.9137 27.739 32.9137 27.7397 32.9137 27.7397C33.0714 27.818 33.2231 27.9054 33.3695 28.0032C33.4985 28.1162 33.6193 28.2374 33.7325 28.3661C33.8419 28.5265 33.94 28.6952 34.026 28.8691C34.0917 29.0543 34.1437 29.2433 34.183 29.4353V29.4383C34.1928 29.5806 34.1943 29.7251 34.1875 29.8682V29.8689C34.1339 30.0971 34.1332 30.3237 34.1837 30.5518C34.1966 30.8183 34.275 31.0668 34.4229 31.2972C34.549 31.5314 34.721 31.7181 34.9399 31.8589C35.1338 32.0365 35.3617 32.1555 35.6228 32.218C35.8016 32.2421 35.979 32.2654 36.1571 32.2895C36.5193 32.2888 36.8581 32.1977 37.1713 32.0162C37.3063 31.9116 37.4422 31.8069 37.5772 31.7023C37.8263 31.453 37.9983 31.1571 38.0942 30.8183C38.159 30.3862 38.227 29.9548 38.2058 29.5173C38.1855 29.0837 38.1259 28.6447 38.0255 28.2231C37.9236 27.7992 37.747 27.3979 37.5697 27.0011C37.4625 26.7617 37.3335 26.5328 37.1848 26.3167C36.9419 25.9644 36.674 25.612 36.3653 25.3108C36.2725 25.219 36.1744 25.1316 36.071 25.0503C35.8371 24.8636 35.6001 24.6724 35.3481 24.5082C34.9783 24.2681 34.5693 24.1047 34.1611 23.9405C33.9053 23.8374 33.6396 23.7591 33.3687 23.7064C32.9333 23.6213 32.4851 23.5588 32.0406 23.552C31.5961 23.546 31.1479 23.6108 30.711 23.6861C30.4393 23.732 30.1729 23.805 29.9156 23.9044C29.5224 24.0557 29.124 24.2191 28.7626 24.4397C28.6494 24.5082 28.5399 24.582 28.4335 24.6611C28.2019 24.8335 27.9679 25.0082 27.7506 25.1979C27.685 25.2544 27.6216 25.3138 27.5604 25.3741C27.4955 25.3101 27.4284 25.2483 27.3605 25.1889C27.0435 24.9141 26.7062 24.6505 26.347 24.4322C25.9856 24.2131 25.5849 24.0497 25.1925 23.8991C24.9351 23.8013 24.6672 23.729 24.3956 23.6831C23.9587 23.61 23.5112 23.546 23.0659 23.5528C22.9256 23.555 22.7845 23.5641 22.6456 23.5791C22.343 23.613 22.0366 23.6492 21.7378 23.7094C21.4624 23.7636 21.193 23.8449 20.9326 23.9511C20.5251 24.1175 20.1176 24.2809 19.7486 24.524C19.391 24.7605 19.0408 25.027 18.7359 25.3297C18.6431 25.4223 18.5548 25.5186 18.4711 25.6203C18.2824 25.8492 18.0968 26.0833 17.9293 26.3288C17.7783 26.5486 17.6478 26.7835 17.5406 27.0275C17.3678 27.4227 17.1928 27.8158 17.0939 28.2366C17.063 28.3691 17.0388 28.5016 17.0192 28.6364C16.9784 28.9323 16.9286 29.2312 16.9158 29.5316C16.8962 29.9638 16.9634 30.3914 17.0282 30.8183C17.0901 31.0788 17.2109 31.3062 17.3874 31.4997C17.5293 31.7181 17.7172 31.8905 17.9511 32.0162C18.1821 32.1623 18.4303 32.2421 18.6982 32.2541C18.9654 32.3136 19.2317 32.3016 19.4989 32.2188C19.6588 32.151 19.8188 32.084 19.9788 32.017C20.2807 31.8385 20.5214 31.5991 20.7002 31.2972C20.7681 31.1376 20.8345 30.978 20.9025 30.8183C20.9855 30.5104 20.9968 30.2032 20.9357 29.8953C20.9274 29.7402 20.9289 29.5851 20.9402 29.4307C20.9794 29.238 21.0322 29.0483 21.0979 28.8638C21.1824 28.6929 21.279 28.5288 21.3854 28.3706C21.3862 28.3699 21.3862 28.3691 21.3869 28.3691C21.5001 28.2396 21.6216 28.1184 21.7499 28.0047C21.8963 27.9069 22.0495 27.818 22.2072 27.7397C22.2079 27.739 22.2079 27.739 22.2087 27.739C22.4064 27.6697 22.6094 27.6147 22.8154 27.5741C23.029 27.5583 23.2425 27.5583 23.4561 27.5741C23.6432 27.611 23.8266 27.6607 24.007 27.7231C24.1835 27.8105 24.3526 27.9106 24.5156 28.0205C24.6808 28.1644 24.8355 28.3194 24.9789 28.4843C25.1004 28.662 25.2091 28.8472 25.3041 29.0407C25.3788 29.2493 25.4362 29.4631 25.4785 29.6807V29.683C25.5102 30.0805 25.4988 30.4788 25.4566 30.8756C25.3796 31.3416 25.2694 31.8031 25.1079 32.2459C24.9608 32.5553 24.7842 32.8512 24.585 33.1298C24.3058 33.4618 23.9949 33.766 23.6598 34.043C23.1716 34.3924 22.6464 34.686 22.0985 34.9337C22.0963 34.9352 22.0932 34.936 22.0902 34.9367C20.9636 35.381 19.7705 35.6535 18.5737 35.8289C16.983 36.0209 15.3741 36.033 13.7766 35.902C13.3691 35.8688 12.9624 35.8252 12.5564 35.7732C12.5511 35.7732 12.5451 35.7725 12.5398 35.771C12.3904 35.7484 12.2409 35.7258 12.0908 35.7009V25.167C12.0908 24.2553 12.4983 23.403 13.2084 22.8285L25.6596 12.7539C26.7606 11.8632 28.3596 11.8632 29.4613 12.7539L41.9125 22.8285C42.6226 23.403 43.0294 24.2553 43.0294 25.167V35.7009C42.8724 35.7273 42.7147 35.7506 42.557 35.7747C42.5517 35.7762 42.5449 35.7777 42.5381 35.7777Z" fill="#E95853"/>
</svg>
